<svg width="16" height="16" viewBox="0 0 16 16" fill="none" xmlns="http://www.w3.org/2000/svg">
<path d="M15.5123 8.38838C15.4435 8.38841 15.3754 8.3723 15.3126 8.34108L11.124 6.24291C11.0381 6.19973 10.9652 6.12971 10.9141 6.04126C10.8629 5.95282 10.8357 5.84973 10.8357 5.74439C10.8357 5.63905 10.8629 5.53596 10.9141 5.44752C10.9652 5.35907 11.0381 5.28905 11.124 5.24587L15.3126 3.15498C15.4308 3.09627 15.565 3.09233 15.6858 3.14402C15.8067 3.19571 15.9043 3.29882 15.9573 3.43081C16.0097 3.56316 16.0132 3.71336 15.9668 3.84853C15.9205 3.9837 15.8282 4.09283 15.7101 4.15203L12.5189 5.74512L15.7107 7.34403C15.8128 7.39493 15.8961 7.48348 15.9468 7.59488C15.9976 7.70627 16.0125 7.83376 15.9893 7.95603C15.9661 8.0783 15.906 8.18795 15.8192 8.26665C15.7324 8.34534 15.624 8.38831 15.5123 8.38838Z" fill="#737373"/>
<path d="M9.80398 16C5.19906 16 1.17317 12.5227 0.015755 7.54328C-0.0168568 7.40324 0.00159638 7.25445 0.067055 7.12964C0.132514 7.00483 0.239616 6.91421 0.3648 6.87773C0.489984 6.84125 0.622996 6.86189 0.734575 6.93512C0.846153 7.00834 0.927159 7.12815 0.959771 7.26818C1.47035 9.45692 2.61559 11.3944 4.21607 12.7769C5.81654 14.1595 7.78182 14.9091 9.80398 14.9083C9.93339 14.9083 10.0575 14.9658 10.149 15.0682C10.2405 15.1706 10.2919 15.3094 10.2919 15.4541C10.2919 15.5989 10.2405 15.7377 10.149 15.8401C10.0575 15.9425 9.93339 16 9.80398 16Z" fill="#737373"/>
<path d="M8.12281 11.4675C7.9934 11.4675 7.86929 11.41 7.77778 11.3076C7.68627 11.2053 7.63486 11.0664 7.63486 10.9217V0.545828C7.63486 0.401066 7.68627 0.262232 7.77778 0.159869C7.86929 0.0575067 7.9934 0 8.12281 0C8.25222 0 8.37633 0.0575067 8.46784 0.159869C8.55935 0.262232 8.61076 0.401066 8.61076 0.545828V10.9217C8.61076 11.0664 8.55935 11.2053 8.46784 11.3076C8.37633 11.41 8.25222 11.4675 8.12281 11.4675Z" fill="#737373"/>
</svg>
