<svg width="16" height="16" viewBox="0 0 16 16" fill="none" xmlns="http://www.w3.org/2000/svg">
<path d="M8.16271 2.66675C8.51871 2.66875 9.40937 2.67741 10.356 2.71541L10.692 2.73008C11.6447 2.77475 12.5967 2.85208 13.0694 2.98341C13.6994 3.16075 14.194 3.67675 14.3614 4.33141C14.628 5.37141 14.6614 7.39942 14.6654 7.89075L14.666 7.99208V8.10808C14.6614 8.59941 14.628 10.6281 14.3614 11.6674C14.192 12.3241 13.6967 12.8407 13.0694 13.0154C12.5967 13.1467 11.6447 13.2241 10.692 13.2687L10.356 13.2841C9.40937 13.3214 8.51871 13.3307 8.16271 13.3321L8.00604 13.3327H7.83604C7.08271 13.3281 3.93204 13.2941 2.92937 13.0154C2.30004 12.8381 1.80471 12.3221 1.63737 11.6674C1.37071 10.6274 1.33737 8.59941 1.33337 8.10808V7.89075C1.33737 7.39942 1.37071 5.37075 1.63737 4.33141C1.80671 3.67475 2.30204 3.15808 2.93004 2.98408C3.93204 2.70475 7.08337 2.67075 7.83671 2.66675H8.16271ZM6.66604 5.66675V10.3334L10.666 8.00008L6.66604 5.66675Z" fill="white"/>
</svg>
