<svg width="16" height="16" viewBox="0 0 16 16" fill="none" xmlns="http://www.w3.org/2000/svg">
<path d="M8.16267 2.66663C8.51867 2.66863 9.40933 2.67729 10.356 2.71529L10.692 2.72996C11.6447 2.77463 12.5967 2.85196 13.0693 2.98329C13.6993 3.16063 14.194 3.67663 14.3613 4.33129C14.628 5.37129 14.6613 7.39929 14.6653 7.89063L14.666 7.99196V8.10796C14.6613 8.59929 14.628 10.628 14.3613 11.6673C14.192 12.324 13.6967 12.8406 13.0693 13.0153C12.5967 13.1466 11.6447 13.224 10.692 13.2686L10.356 13.284C9.40933 13.3213 8.51867 13.3306 8.16267 13.332L8.006 13.3326H7.836C7.08267 13.328 3.932 13.294 2.92933 13.0153C2.3 12.838 1.80467 12.322 1.63733 11.6673C1.37067 10.6273 1.33733 8.59929 1.33333 8.10796V7.89063C1.33733 7.39929 1.37067 5.37063 1.63733 4.33129C1.80667 3.67463 2.302 3.15796 2.93 2.98396C3.932 2.70463 7.08333 2.67063 7.83667 2.66663H8.16267ZM6.666 5.66663V10.3333L10.666 7.99996L6.666 5.66663Z" fill="#737373"/>
</svg>
